HIERARCHY
ROOT Pelvis
{
	OFFSET 0.000000 0.000000 0.000000
	CHANNELS 6 Xposition Yposition Zposition Zrotation Yrotation Xrotation 
	JOINT Left_hip
	{
		OFFSET 0.070241 -0.085575 -0.010474
		CHANNELS 3 Zrotation Yrotation Xrotation
		JOINT Left_knee
		{
			OFFSET 0.032125 -0.356873 -0.000555
			CHANNELS 3 Zrotation Yrotation Xrotation
			JOINT Left_ankle
			{
				OFFSET -0.010961 -0.370212 -0.042278
				CHANNELS 3 Zrotation Yrotation Xrotation
				JOINT Left_foot
				{
					OFFSET 0.023322 -0.052281 0.110104
					CHANNELS 3 Zrotation Yrotation Xrotation
					End Site
					{
						OFFSET 0.000000 0.000000 0.000000
					}
				}
			}
		}
	}
	JOINT Right_hip
	{
		OFFSET -0.068518 -0.084320 -0.007402
		CHANNELS 3 Zrotation Yrotation Xrotation
		JOINT Right_knee
		{
			OFFSET -0.037345 -0.364815 -0.003619
			CHANNELS 3 Zrotation Yrotation Xrotation
			JOINT Right_ankle
			{
				OFFSET 0.013394 -0.370006 -0.039954
				CHANNELS 3 Zrotation Yrotation Xrotation
				JOINT Right_foot
				{
					OFFSET -0.019600 -0.045455 0.113223
					CHANNELS 3 Zrotation Yrotation Xrotation
					End Site
					{
						OFFSET 0.000000 0.000000 0.000000
					}
				}
			}
		}
	}
	JOINT Spine1
	{
		OFFSET -0.002404 0.098129 -0.018169
		CHANNELS 3 Zrotation Yrotation Xrotation
		JOINT Spine2
		{
			OFFSET 0.003989 0.127209 -0.001742
			CHANNELS 3 Zrotation Yrotation Xrotation
			JOINT Spine3
			{
				OFFSET 0.001758 0.046641 0.023475
				CHANNELS 3 Zrotation Yrotation Xrotation
				JOINT Neck
				{
					OFFSET -0.003759 0.194901 -0.039982
					CHANNELS 3 Zrotation Yrotation Xrotation
					JOINT Head
					{
						OFFSET 0.003999 0.063756 0.047665
						CHANNELS 3 Zrotation Yrotation Xrotation
						End Site
						{
							OFFSET 0.000000 0.000000 0.000000
						}
					}
				}
				JOINT Left_collar
				{
					OFFSET 0.071816 0.109048 -0.028973
					CHANNELS 3 Zrotation Yrotation Xrotation
					JOINT Left_shoulder
					{
						OFFSET 0.084027 0.032269 -0.006525
						CHANNELS 3 Zrotation Yrotation Xrotation
						JOINT Left_elbow
						{
							OFFSET 0.243854 -0.013992 -0.025905
							CHANNELS 3 Zrotation Yrotation Xrotation
							JOINT Left_wrist
							{
								OFFSET 0.232156 0.008196 -0.000339
								CHANNELS 3 Zrotation Yrotation Xrotation
								JOINT Left_palm
								{
									OFFSET 0.075377 -0.009461 -0.012494
									CHANNELS 3 Zrotation Yrotation Xrotation
									End Site
									{
										OFFSET 0.000000 0.000000 0.000000
									}
								}
							}
						}
					}
				}
				JOINT Right_collar
				{
					OFFSET -0.073768 0.107001 -0.033755
					CHANNELS 3 Zrotation Yrotation Xrotation
					JOINT Right_shoulder
					{
						OFFSET -0.086837 0.032868 -0.009431
						CHANNELS 3 Zrotation Yrotation Xrotation
						JOINT Right_elbow
						{
							OFFSET -0.236446 -0.012544 -0.018747
							CHANNELS 3 Zrotation Yrotation Xrotation
							JOINT Right_wrist
							{
								OFFSET -0.236110 0.006124 -0.004327
								CHANNELS 3 Zrotation Yrotation Xrotation
								JOINT Right_palm
								{
									OFFSET -0.074800 -0.006875 -0.009610
									CHANNELS 3 Zrotation Yrotation Xrotation
									End Site
									{
										OFFSET 0.000000 0.000000 0.000000
									}
								}
							}
						}
					}
				}
			}
		}
	}
}
MOTION
Frames: 10
Frame Time: 0.100000
0.000000 0.000000 0.000000 175.460979 22.907734 -9.585268 4.891371 10.024057 0.026779 0.871196 -1.333596 -3.397778 -4.870026 26.577098 0.333303 10.307927 -5.439499 -2.149297 0.180888 -5.387780 1.103655 -0.180067 7.537767 -2.560825 -0.500302 -20.012781 -2.696662 6.384031 5.754564 7.302494 0.674687 2.270575 -2.796554 1.220428 -2.915791 -5.177523 0.121996 2.187430 -0.662000 0.008580 8.102600 12.200317 3.566067 11.469294 10.398771 -6.374261 4.438443 -10.152241 7.846350 -14.973320 -16.621485 1.297621 12.277056 -7.082171 -0.846674 -4.354622 30.312961 -2.930064 -8.035982 -1.215323 6.961769 -3.843779 -6.748078 -9.665155 9.200718 -23.803352 -8.043367 -13.673400 -12.374011 -2.539988 1.156383 33.780868 9.670049 8.990132 -4.809339 
0.000968 0.000091 -0.002219 175.410560 23.000217 -9.727645 4.910433 9.992576 -0.193126 0.878513 -1.379066 -3.075664 -4.851658 26.634778 0.610509 10.355615 -5.446775 -2.423052 0.274521 -5.393288 0.936986 -0.209017 7.518781 -2.283257 -0.309938 -20.269875 -2.683223 5.819510 6.064583 7.255252 0.649878 2.313162 -2.184065 1.182654 -2.934203 -5.242694 0.169598 2.191332 -0.390789 -0.531970 7.770774 12.325404 3.526943 11.028302 10.472354 -6.162823 4.179346 -10.100156 7.872900 -15.166645 -16.920421 1.197021 12.166244 -7.151667 -0.694377 -4.299465 30.310426 -3.091214 -8.088191 -1.264382 7.040944 -3.574163 -6.773560 -9.193811 9.107637 -23.710452 -8.024499 -13.637204 -12.444303 -2.583728 1.096897 33.597419 9.792406 9.022955 -4.864384 
0.004417 0.000729 -0.006228 175.395914 23.096275 -9.850525 4.948595 9.984404 -0.561330 0.906271 -1.320369 -2.899389 -4.841766 26.598040 1.003048 10.447086 -5.410245 -2.548108 0.398967 -5.381418 0.301272 -0.074730 7.321025 -1.485516 -0.117738 -20.392941 -2.895120 5.240740 6.403595 7.472260 0.554680 2.347003 -1.606633 1.121237 -2.959812 -4.839735 0.053178 2.186809 -0.198422 -1.359582 6.534023 13.657519 3.378791 9.704509 11.486835 -6.221471 4.115407 -9.976254 7.803868 -15.723696 -17.283418 1.158627 11.990229 -7.622255 -0.460784 -4.256167 30.268796 -3.284340 -8.111373 -1.459377 7.572649 -3.190275 -6.874186 -8.454358 9.531137 -23.617627 -8.075257 -13.845624 -13.297469 -2.878961 1.204150 32.976319 9.843317 8.932738 -4.814057 
0.011156 0.002562 -0.013620 175.428607 23.078978 -10.293419 5.116498 10.026831 -0.745772 0.927907 -1.256133 -2.871926 -5.057010 26.579330 1.383957 10.999598 -5.398899 -2.579533 0.546343 -5.210830 -0.324168 0.136997 7.034385 -0.560403 -0.146249 -20.293942 -3.029243 4.870852 6.800825 7.726372 0.424462 2.407696 -0.413172 0.939102 -2.967683 -3.400824 -0.216207 2.150726 0.097637 -2.165036 5.522724 15.910709 3.124376 8.180281 12.324697 -7.010320 4.251562 -9.650221 7.394307 -16.305447 -17.773388 1.325413 11.010793 -10.618782 0.959538 -4.812615 28.255938 -3.899148 -7.914606 -1.484002 8.809796 -2.619591 -6.630356 -6.526369 10.128673 -22.748754 -7.707467 -13.204681 -15.161568 -3.721654 1.781518 30.240551 9.859742 8.566531 -4.113428 
0.021848 0.005643 -0.027262 175.349434 23.129284 -10.715543 5.397912 10.078958 -1.930310 0.796084 -1.279491 -2.037024 -5.356291 26.751662 2.116252 11.875394 -5.557404 -3.172780 0.877602 -5.034946 -1.700594 0.377395 7.017466 0.823609 -0.134735 -20.496275 -2.828394 3.730919 7.770542 7.357966 0.191758 2.536769 2.151354 0.536433 -3.027837 -1.976993 -0.306028 2.251837 0.557697 -2.904234 4.636312 16.469924 3.620270 7.156644 12.681193 -7.976174 2.988393 -9.136666 6.852189 -17.491731 -19.019348 2.052014 9.873528 -15.332753 4.209606 -4.542946 25.529365 -4.725471 -7.863927 -1.068111 10.039522 -0.660465 -5.875260 -4.206980 11.519840 -22.465899 -6.581553 -14.620624 -17.320686 -5.193189 1.287112 27.964894 9.703515 8.557365 -3.232655 
0.035090 0.010131 -0.046685 174.999172 23.823160 -10.976091 5.623103 9.879149 -3.960177 0.746825 -1.250210 -1.338741 -5.674457 26.453435 3.241963 12.813599 -5.211738 -3.497009 1.454414 -4.799585 -3.878694 0.497522 6.368737 2.414741 -0.283126 -20.651366 -2.374605 2.425928 8.253628 6.805267 -0.019007 2.682865 5.444856 0.307636 -3.266039 -0.475700 -0.085334 2.273721 0.704114 -4.020910 3.326467 16.545173 4.170924 5.475695 12.879771 -8.135652 -0.580342 -8.591294 6.238353 -20.796730 -20.564831 2.968442 9.250639 -19.457604 8.744343 -4.463701 22.847318 -5.055127 -7.616097 -0.246883 10.513786 2.986677 -5.216729 -2.277023 13.844465 -22.274340 -6.415602 -13.649692 -18.988369 -8.035712 1.731241 25.523277 9.441210 8.391698 -2.285698 
0.048611 0.015620 -0.070012 174.922662 24.473095 -10.423697 5.395817 9.547051 -6.545534 0.748863 -0.355917 -1.500544 -5.817348 25.392109 4.995180 13.387924 -4.268459 -3.936036 1.727794 -4.202946 -7.750448 0.625118 5.074254 5.155573 -0.076475 -20.205748 -2.285342 0.754835 8.717334 6.387479 0.005029 2.704979 8.842298 -0.162888 -3.293910 1.221616 -0.046264 2.468827 0.382964 -5.434093 2.548401 17.567353 4.443045 3.832622 13.115975 -7.421635 -4.318820 -8.261982 3.531143 -25.236441 -20.069187 5.211479 4.003676 -21.618505 11.404157 -5.046486 18.508633 -5.871680 -7.409926 -0.238290 9.929809 7.041246 -4.222767 0.865705 17.243094 -20.267574 -7.078341 -9.525588 -18.580915 -9.949624 2.781725 21.883501 9.269460 8.371195 -1.902820 
0.062289 0.022778 -0.094358 175.114574 24.398183 -9.663965 5.224605 8.983822 -9.242782 0.763825 1.422759 -1.306069 -5.620487 24.102751 6.582098 13.824205 -2.809004 -4.428026 1.858065 -3.485176 -11.873876 0.588353 3.448270 7.886167 0.455596 -19.019643 -2.071541 -0.884784 8.961896 6.005510 -0.176878 2.862479 12.297611 -0.626211 -3.170959 3.873712 -0.246901 2.822224 -0.419858 -6.499187 2.972939 18.686269 4.374496 2.986967 13.584323 -7.437814 -7.400300 -7.516650 -0.680481 -29.021224 -16.831980 8.512791 -6.884098 -19.219942 10.892837 -5.832376 15.910324 -7.414926 -7.786537 -1.537317 10.655445 10.916268 -2.406662 4.607975 21.101810 -16.802691 -9.998146 -0.537455 -14.513153 -10.496518 3.972597 21.619607 9.714433 8.752112 -2.550423 
0.075181 0.029170 -0.114132 174.581642 25.086303 -8.320915 5.558365 7.942641 -12.906782 0.971739 3.703434 -0.863402 -5.234672 21.351419 8.294885 13.202610 0.283566 -4.135816 2.230378 -2.405968 -15.431313 0.368420 0.850760 8.491270 -0.142525 -16.791473 -1.145595 -0.602236 7.171043 6.943519 -0.326581 3.145079 14.631698 -0.487523 -3.162802 6.409214 -0.333456 2.930888 -1.728875 -6.384267 3.810973 20.058388 3.808561 1.911797 14.133440 -9.597195 -10.912030 -6.916764 -9.042008 -33.513446 -9.643615 13.319934 -19.798480 -17.974309 13.020464 -7.166639 11.057805 -9.273127 -7.669467 -1.749548 13.010853 13.738499 -1.090762 11.414443 23.291622 -10.766194 -14.734467 15.197253 -11.433353 -14.178648 5.946787 20.666438 11.418902 9.137058 -3.120237 
0.085088 0.034249 -0.129605 174.351736 25.513109 -8.381613 5.808560 7.785695 -13.946729 1.102904 5.080508 -1.596467 -5.768246 19.472769 10.433249 14.707937 2.423800 -5.670518 2.410981 -1.650662 -16.195650 -0.055101 -0.598806 7.788557 1.180658 -15.306638 -0.963174 -4.546073 6.296864 6.105587 -0.316661 3.374926 17.604392 -1.136345 -3.301526 10.080511 -0.610606 3.159659 -2.850824 -6.597267 4.468748 19.283040 3.856115 1.661079 14.730277 -12.305679 -14.916500 -5.242489 -21.531151 -37.991589 -0.124066 16.212387 -28.247791 -11.620923 12.525925 -8.197091 11.649732 -11.215771 -8.570537 -4.002454 15.855279 17.292091 0.812330 21.763319 26.486535 -3.222359 -20.394090 27.977819 -11.433405 -14.823705 7.952256 17.340735 13.040252 9.650404 -3.690716 
